<?xml version="1.0" encoding="utf-8"?>
<!-- Generator: Adobe Illustrator 17.1.0, SVG Export Plug-In . SVG Version: 6.00 Build 0)  -->
<!DOCTYPE svg PUBLIC "-//W3C//DTD SVG 1.1//EN" "http://www.w3.org/Graphics/SVG/1.1/DTD/svg11.dtd">
<svg version="1.1" id="Layer_1" xmlns="http://www.w3.org/2000/svg" xmlns:xlink="http://www.w3.org/1999/xlink" x="0px" y="0px"
	 viewBox="0 0 32 32" enable-background="new 0 0 32 32" xml:space="preserve">
<g>
	<defs>
		<rect id="SVGID_1_" width="32" height="32"/>
	</defs>
	<clipPath id="SVGID_2_">
		<use xlink:href="#SVGID_1_"  overflow="visible"/>
	</clipPath>
	<path clip-path="url(#SVGID_2_)" fill="#231F20" d="M16,2c7.732,0,14,6.268,14,14s-6.268,14-14,14S2,23.732,2,16S8.268,2,16,2
		 M16,28c6.617,0,12-5.383,12-12S22.617,4,16,4S4,9.383,4,16S9.383,28,16,28 M16,5c6.075,0,11,4.925,11,11s-4.925,11-11,11
		S5,22.075,5,16S9.925,5,16,5 M11.571,17.162h1.604c-0.133,1.124-0.678,2.032-1.604,2.777v1.686h8.628v-1.984h-5.752
		c0.693-0.843,1.008-1.487,1.091-2.479h2.363v-1.868h-2.529c-0.082-0.264-0.313-0.678-0.446-0.909
		c-0.198-0.347-0.414-0.744-0.414-1.157c0-0.694,0.563-1.124,1.67-1.124c1.024,0,2.066,0.331,2.86,1.042l1.388-1.703
		c-1.14-1.025-2.628-1.57-4.214-1.57c-2.678,0-4.232,1.09-4.232,3.041c0,0.579,0.248,1.207,0.48,1.637
		c0.099,0.198,0.281,0.479,0.412,0.743h-1.305V17.162 M16,0C7.178,0,0,7.178,0,16s7.178,16,16,16s16-7.178,16-16S24.822,0,16,0"/>
</g>
</svg>
