<?xml version="1.0" encoding="UTF-8" standalone="no"?>
<svg width="51px" height="51px" viewBox="0 0 51 51" version="1.1" xmlns="http://www.w3.org/2000/svg" xmlns:xlink="http://www.w3.org/1999/xlink" xmlns:sketch="http://www.bohemiancoding.com/sketch/ns">
    <!-- Generator: Sketch 3.0.2 (7799) - http://www.bohemiancoding.com/sketch -->
    <title>Fill 16</title>
    <description>Created with Sketch.</description>
    <defs></defs>
    <g id="Page-1" stroke="none" stroke-width="1" fill="none" fill-rule="evenodd" sketch:type="MSPage">
        <path d="M3.13922019,0.5 C1.61463918,0.5 0.3795,1.73513455 0.3795,3.25952251 L0.3795,47.7404775 C0.3795,49.2644908 1.61463918,50.5 3.13922019,50.5 L27.0860828,50.5 L27.0860828,31.1374441 L20.5701757,31.1374441 L20.5701757,23.5913771 L27.0860828,23.5913771 L27.0860828,18.0264337 C27.0860828,11.5682518 31.0303601,8.05168719 36.7916577,8.05168719 C39.5511905,8.05168719 41.9229275,8.25719949 42.6144031,8.34899623 L42.6144031,15.0981176 L38.6184197,15.099991 C35.4853289,15.099991 34.8787188,16.5887843 34.8787188,18.7735468 L34.8787188,23.5913771 L42.3510017,23.5913771 L41.3779526,31.1374441 L34.8787188,31.1374441 L34.8787188,50.5 L47.6199672,50.5 C49.1439861,50.5 50.3795,49.2644908 50.3795,47.7404775 L50.3795,3.25952251 C50.3795,1.73513455 49.1439861,0.5 47.6199672,0.5 L3.13922019,0.5 Z" id="Fill-16" fill="#79808B" sketch:type="MSShapeGroup"></path>
    </g>
</svg>