<?xml version="1.0" encoding="UTF-8" standalone="no"?>
<svg width="50px" height="100px" viewBox="0 0 50 100" version="1.1" xmlns="http://www.w3.org/2000/svg" xmlns:xlink="http://www.w3.org/1999/xlink" xmlns:sketch="http://www.bohemiancoding.com/sketch/ns">
    <!-- Generator: Sketch 3.0.2 (7799) - http://www.bohemiancoding.com/sketch -->
    <title>Fill 15 + Fill 16</title>
    <description>Created with Sketch.</description>
    <defs></defs>
    <g id="Page-1" stroke="none" stroke-width="1" fill="none" fill-rule="evenodd" sketch:type="MSPage">
        <g id="Fill-15-+-Fill-16" sketch:type="MSLayerGroup">
            <path d="M2.75972019,0 C1.23513918,0 0,1.23513455 0,2.75952251 L0,47.2404775 C0,48.7644908 1.23513918,50 2.75972019,50 L26.7065828,50 L26.7065828,30.6374441 L20.1906757,30.6374441 L20.1906757,23.0913771 L26.7065828,23.0913771 L26.7065828,17.5264337 C26.7065828,11.0682518 30.6508601,7.55168719 36.4121577,7.55168719 C39.1716905,7.55168719 41.5434275,7.75719949 42.2349031,7.84899623 L42.2349031,14.5981176 L38.2389197,14.599991 C35.1058289,14.599991 34.4992188,16.0887843 34.4992188,18.2735468 L34.4992188,23.0913771 L41.9715017,23.0913771 L40.9984526,30.6374441 L34.4992188,30.6374441 L34.4992188,50 L47.2404672,50 C48.7644861,50 50,48.7644908 50,47.2404775 L50,2.75952251 C50,1.23513455 48.7644861,0 47.2404672,0 L2.75972019,0 Z" id="Fill-15" fill="#375085" sketch:type="MSShapeGroup"></path>
            <path d="M2.75972019,50 C1.23513918,50 0,51.2351345 0,52.7595225 L0,97.2404775 C0,98.7644908 1.23513918,100 2.75972019,100 L26.7065828,100 L26.7065828,80.6374441 L20.1906757,80.6374441 L20.1906757,73.0913771 L26.7065828,73.0913771 L26.7065828,67.5264337 C26.7065828,61.0682518 30.6508601,57.5516872 36.4121577,57.5516872 C39.1716905,57.5516872 41.5434275,57.7571995 42.2349031,57.8489962 L42.2349031,64.5981176 L38.2389197,64.599991 C35.1058289,64.599991 34.4992188,66.0887843 34.4992188,68.2735468 L34.4992188,73.0913771 L41.9715017,73.0913771 L40.9984526,80.6374441 L34.4992188,80.6374441 L34.4992188,100 L47.2404672,100 C48.7644861,100 50,98.7644908 50,97.2404775 L50,52.7595225 C50,51.2351345 48.7644861,50 47.2404672,50 L2.75972019,50 Z" id="Fill-16" fill="#79808B" sketch:type="MSShapeGroup"></path>
        </g>
    </g>
</svg>