<?xml version="1.0" encoding="utf-8"?>
<!-- Generator: Adobe Illustrator 17.1.0, SVG Export Plug-In . SVG Version: 6.00 Build 0)  -->
<!DOCTYPE svg PUBLIC "-//W3C//DTD SVG 1.1//EN" "http://www.w3.org/Graphics/SVG/1.1/DTD/svg11.dtd">
<svg version="1.1" id="Layer_1" xmlns="http://www.w3.org/2000/svg" xmlns:xlink="http://www.w3.org/1999/xlink" x="0px" y="0px"
	 viewBox="0 0 32 32" enable-background="new 0 0 32 32" xml:space="preserve">
<g>
	<defs>
		<rect id="SVGID_1_" width="32" height="32"/>
	</defs>
	<clipPath id="SVGID_2_">
		<use xlink:href="#SVGID_1_"  overflow="visible"/>
	</clipPath>
	<path clip-path="url(#SVGID_2_)" fill="#231F20" d="M13.688,2.016c1.115,0,2.132,0.752,2.42,1.883l0.323,1.267l-3.303,7.293
		l-1.866-7.326c-0.341-1.338,0.468-2.697,1.806-3.039C13.274,2.041,13.482,2.016,13.688,2.016 M20.278,2.655
		c0.345,0,0.695,0.072,1.03,0.224c1.257,0.569,1.815,2.053,1.247,3.311l-3.549,7.836v2.99c0,1.654,1.346,3,3,3h1
		c0.353,0,0.686-0.072,1-0.184v0.19c0,1.654,1.346,3,3,3h0.86c-0.712,3.974-4.181,6.994-8.36,6.994c-3.808,0-7.5-1-9.474-5.008
		c-3.092-2.976-4.82-3.994-5.021-3.996c-0.054-0.002-0.097-0.021-0.145-0.031c-0.118,0.015-0.237,0.035-0.36,0.035
		c-1.381,0-2.5-1.119-2.5-2.5s1.119-2.5,2.5-2.5H4.59c0.468,0,2.848,0.1,6.416,2h0.007c0.064,0,0.57-0.043,1.298-1.359l3.441-7.602
		c0.019-0.041,0.046-0.074,0.066-0.113l2.18-4.817C18.417,3.202,19.327,2.655,20.278,2.655 M23.007,12.012c1.104,0,2,0.895,2,2
		v3.004c0,1.104-0.896,2-2,2h-1c-1.105,0-2-0.896-2-2v-3.004c0-1.105,0.895-2,2-2H23.007 M28.007,15.016c1.104,0,2,0.895,2,2v3.006
		c0,1.103-0.896,2-2,2h-1c-1.105,0-2-0.897-2-2v-0.785c0.61-0.551,1-1.338,1-2.221v-1.723c0.295-0.172,0.634-0.277,1-0.277H28.007
		 M13.688,0.016c-0.375,0-0.75,0.047-1.115,0.141C10.168,0.77,8.71,3.223,9.323,5.627l1.866,7.327
		c0.061,0.242,0.166,0.464,0.305,0.66l-0.894,1.972c-3.172-1.445-5.357-1.57-6.01-1.57H4.464c-2.462,0.023-4.457,2.033-4.457,4.5
		c0,2.482,2.019,4.5,4.5,4.5h0.048c0.565,0.359,1.878,1.326,3.851,3.203c2.062,3.901,5.698,5.797,11.101,5.797
		c5.011,0,9.299-3.525,10.285-8.416c1.312-0.656,2.215-2.014,2.215-3.578v-3.006c0-2.205-1.795-4-4-4h-1
		c-0.042,0-0.083,0.002-0.125,0.002c-0.441-1.723-2.005-3-3.861-3.006l1.357-2.998c1.022-2.262,0.015-4.934-2.244-5.957
		c-0.588-0.266-1.212-0.402-1.855-0.402c-1.126,0-2.19,0.423-3.001,1.148C16.446,0.703,15.132,0.016,13.688,0.016"/>
</g>
</svg>
