<?xml version="1.0" encoding="UTF-8" standalone="no"?>
<svg width="197px" height="60px" viewBox="0 0 197 60" version="1.1" xmlns="http://www.w3.org/2000/svg" xmlns:xlink="http://www.w3.org/1999/xlink" xmlns:sketch="http://www.bohemiancoding.com/sketch/ns">
    <!-- Generator: Sketch 3.3 (11970) - http://www.bohemiancoding.com/sketch -->
    <title>heliwm-logo-head-light-02</title>
    <desc>Created with Sketch.</desc>
    <defs></defs>
    <g id="Page-1" stroke="none" stroke-width="1" fill="none" fill-rule="evenodd" sketch:type="MSPage">
        <g id="heliwm-logo-head-light-02" sketch:type="MSLayerGroup">
            <circle id="Oval" opacity="0.297866138" fill="#444444" sketch:type="MSShapeGroup" cx="30.001" cy="30" r="30"></circle>
            <g id="Group" transform="translate(74.000000, 14.000000)" fill="#444444" sketch:type="MSShapeGroup">
                <path d="M12.836,23.794 C12.836,24.252 12.684,24.633 12.38,24.938 C12.076,25.243 11.696,25.395 11.24,25.395 C10.806,25.395 10.431,25.243 10.116,24.938 C9.801,24.632 9.643,24.25 9.643,23.792 L9.643,12.572 C9.643,11.765 9.355,11.073 8.78,10.495 C8.205,9.917 7.514,9.628 6.712,9.628 L6.582,9.628 C5.778,9.628 5.088,9.917 4.513,10.495 C3.938,11.073 3.65,11.765 3.65,12.572 L3.65,23.792 C3.65,24.25 3.492,24.632 3.177,24.938 C2.862,25.243 2.488,25.395 2.053,25.395 C1.597,25.395 1.217,25.243 0.913,24.939 C0.609,24.634 0.457,24.254 0.457,23.797 L0.457,1.682 C0.457,1.247 0.609,0.872 0.913,0.557 C1.217,0.242 1.598,0.084 2.053,0.084 C2.487,0.084 2.862,0.242 3.177,0.557 C3.492,0.872 3.65,1.246 3.65,1.681 L3.65,7.024 C3.65,7.154 3.704,7.187 3.813,7.121 C4.681,6.665 5.604,6.437 6.582,6.437 L6.712,6.437 C8.405,6.437 9.85,7.037 11.044,8.235 C12.239,9.434 12.836,10.883 12.836,12.582 L12.836,23.794 L12.836,23.794 Z" id="Shape"></path>
                <path d="M35.448,15.916 C35.448,16.372 35.296,16.758 34.992,17.073 C34.688,17.388 34.308,17.545 33.852,17.545 L26.457,17.545 C26.327,17.545 26.261,17.6 26.261,17.708 L26.261,19.337 C26.261,20.141 26.549,20.831 27.124,21.405 C27.699,21.981 28.389,22.269 29.193,22.269 L29.323,22.269 C30.474,22.269 31.331,21.759 31.897,20.738 C32.2,20.173 32.667,19.891 33.298,19.891 C33.754,19.891 34.133,20.048 34.438,20.363 C34.742,20.678 34.894,21.052 34.894,21.487 C34.894,21.77 34.829,22.031 34.698,22.269 C34.177,23.246 33.433,24.023 32.467,24.598 C31.5,25.173 30.452,25.461 29.324,25.461 L29.194,25.461 C27.5,25.461 26.055,24.864 24.861,23.67 C23.666,22.475 23.069,21.031 23.069,19.337 L23.069,12.528 C23.069,10.834 23.666,9.384 24.861,8.179 C26.055,6.974 27.5,6.371 29.194,6.371 L29.324,6.371 C31.017,6.371 32.462,6.974 33.656,8.179 C34.851,9.384 35.448,10.834 35.448,12.528 L35.448,15.916 L35.448,15.916 Z M32.255,14.188 L32.255,12.548 C32.255,11.717 31.967,11.012 31.392,10.432 C30.817,9.853 30.126,9.563 29.324,9.563 L29.194,9.563 C28.39,9.563 27.7,9.853 27.125,10.432 C26.55,11.011 26.262,11.717 26.262,12.548 L26.262,14.188 C26.262,14.297 26.327,14.352 26.458,14.352 L32.061,14.352 C32.19,14.352 32.255,14.297 32.255,14.188 L32.255,14.188 Z" id="Shape"></path>
                <path d="M49.687,25.396 C49.362,25.396 49.068,25.309 48.808,25.135 C46.658,23.743 45.582,21.754 45.582,19.166 L45.582,1.682 C45.582,1.247 45.739,0.872 46.055,0.557 C46.37,0.242 46.744,0.084 47.179,0.084 C47.635,0.084 48.015,0.242 48.319,0.557 C48.623,0.872 48.775,1.248 48.775,1.682 L48.775,19.166 C48.775,20.58 49.372,21.678 50.567,22.461 C51.044,22.788 51.283,23.234 51.283,23.798 C51.283,24.233 51.125,24.608 50.81,24.923 C50.496,25.238 50.121,25.396 49.687,25.396 L49.687,25.396 Z" id="Shape"></path>
                <path d="M65.034,1.94 C65.034,2.462 64.843,2.912 64.464,3.292 C64.083,3.672 63.634,3.862 63.112,3.862 C62.59,3.862 62.14,3.672 61.76,3.292 C61.38,2.912 61.19,2.462 61.19,1.94 C61.19,1.398 61.38,0.941 61.76,0.572 C62.14,0.203 62.59,0.018 63.112,0.018 C63.634,0.018 64.083,0.203 64.464,0.572 C64.843,0.941 65.034,1.398 65.034,1.94 L65.034,1.94 Z M64.708,23.794 C64.708,24.252 64.55,24.633 64.235,24.938 C63.92,25.243 63.546,25.395 63.111,25.395 C62.677,25.395 62.302,25.243 61.987,24.938 C61.672,24.633 61.514,24.252 61.514,23.794 L61.514,8.038 C61.514,7.602 61.671,7.226 61.987,6.91 C62.302,6.595 62.676,6.436 63.111,6.436 C63.545,6.436 63.92,6.595 64.235,6.91 C64.55,7.226 64.708,7.602 64.708,8.038 L64.708,23.794 L64.708,23.794 Z" id="Shape"></path>
                <path d="M94.634,8.553 L90.497,24.255 C90.301,25.059 89.79,25.46 88.964,25.46 C88.137,25.46 87.615,25.059 87.398,24.256 L84.89,14.711 C84.869,14.667 84.838,14.645 84.795,14.645 C84.775,14.645 84.753,14.667 84.733,14.711 L82.225,24.256 C82.007,25.06 81.485,25.46 80.659,25.46 C79.833,25.46 79.322,25.058 79.126,24.255 L74.989,8.553 C74.945,8.423 74.923,8.282 74.923,8.13 C74.923,7.696 75.082,7.321 75.399,7.006 C75.717,6.691 76.094,6.533 76.532,6.533 C77.363,6.533 77.889,6.933 78.107,7.732 L80.591,17.284 C80.612,17.327 80.634,17.348 80.656,17.348 C80.7,17.348 80.733,17.327 80.755,17.284 L83.263,7.738 C83.48,6.935 83.991,6.533 84.794,6.533 C85.619,6.533 86.14,6.935 86.358,7.738 L88.866,17.284 C88.891,17.327 88.931,17.348 88.984,17.348 C89.009,17.348 89.035,17.329 89.062,17.292 L91.544,7.74 C91.76,6.935 92.281,6.533 93.104,6.533 C93.537,6.533 93.911,6.691 94.225,7.006 C94.539,7.321 94.696,7.695 94.696,8.13 C94.699,8.282 94.677,8.423 94.634,8.553 L94.634,8.553 Z" id="Shape"></path>
                <path d="M123.001,23.794 C123.001,24.252 122.849,24.633 122.545,24.938 C122.241,25.243 121.861,25.395 121.405,25.395 C120.971,25.395 120.596,25.243 120.281,24.938 C119.966,24.632 119.809,24.25 119.809,23.792 L119.809,11.852 C119.809,11.242 119.591,10.718 119.157,10.282 C118.723,9.846 118.201,9.627 117.593,9.627 C116.985,9.627 116.463,9.845 116.03,10.282 C115.595,10.718 115.378,11.242 115.378,11.852 L115.378,23.792 C115.378,24.25 115.22,24.632 114.905,24.938 C114.59,25.243 114.216,25.395 113.781,25.395 C113.347,25.395 112.972,25.243 112.657,24.938 C112.342,24.632 112.185,24.25 112.185,23.792 L112.185,11.852 C112.185,11.242 111.967,10.718 111.533,10.282 C111.099,9.846 110.577,9.627 109.969,9.627 C109.361,9.627 108.839,9.845 108.405,10.282 C107.971,10.718 107.754,11.242 107.754,11.852 L107.754,23.792 C107.754,24.25 107.596,24.632 107.281,24.938 C106.966,25.243 106.592,25.395 106.157,25.395 C105.701,25.395 105.321,25.243 105.017,24.938 C104.713,24.633 104.561,24.252 104.561,23.794 L104.561,11.862 C104.561,10.358 105.087,9.078 106.141,8.021 C107.195,6.964 108.47,6.435 109.969,6.435 C111.38,6.435 112.608,6.923 113.65,7.899 C113.693,7.944 113.737,7.966 113.78,7.966 C113.823,7.966 113.866,7.944 113.91,7.899 C114.952,6.923 116.18,6.435 117.591,6.435 C119.09,6.435 120.365,6.964 121.419,8.021 C122.473,9.078 122.999,10.358 122.999,11.862 L122.999,23.794 L123.001,23.794 Z" id="Shape"></path>
            </g>
            <g id="Group" transform="translate(13.000000, 0.000000)" sketch:type="MSShapeGroup">
                <path d="M11.067,39.444 C11.067,39.444 1.455,26.742 1.283,15.585 C1.112,4.428 11.582,0.309 18.105,0.652 C24.628,0.995 34.755,5.973 33.381,15.757 C32.008,25.541 29.262,33.436 23.254,40.131 C17.246,46.826 11.067,39.444 11.067,39.444 L11.067,39.444 Z" id="Shape" fill="#F60C5B"></path>
                <path d="M13.299,41.504 C13.299,41.504 8.665,31.377 8.665,26.914 C8.665,22.451 9.352,13.697 17.934,13.869 C26.516,14.041 26.516,24.854 26.001,27.772 C25.486,30.69 23.598,40.817 21.023,43.392 C18.448,45.966 13.299,41.504 13.299,41.504 L13.299,41.504 Z" id="Shape" fill="#00AA9D"></path>
                <path d="M17.59,23.309 C15.53,23.309 12.097,27.6 12.956,32.749 C13.814,37.898 17.419,51.973 17.419,51.973 C17.419,51.973 20.337,41.846 20.852,39.615 C21.367,37.384 21.882,29.831 21.71,28.458 C21.537,27.086 19.993,23.309 17.59,23.309 L17.59,23.309 Z" id="Shape" fill="#D6E000"></path>
                <path d="M29.355,3.817 C26.317,1.375 22.064,0.027 17.376,0.022 C12.69,0.027 8.436,1.376 5.399,3.818 C2.057,6.505 0.29,10.332 0.29,14.881 C0.29,25.238 4.415,31.665 8.405,37.877 C12.141,43.694 15.669,49.154 16.072,57.804 C16.104,58.501 16.679,59.022 17.378,59.022 L17.378,59.022 C18.076,59.022 18.651,58.502 18.684,57.804 C19.09,49.155 22.618,43.67 26.352,37.853 C30.341,31.64 34.466,25.226 34.466,14.867 C34.465,10.32 32.698,6.505 29.355,3.817 L29.355,3.817 Z M18.243,43.665 C17.95,44.686 17.653,45.717 17.378,46.803 C17.102,45.716 16.806,44.685 16.512,43.663 C15.442,39.941 14.431,36.426 14.431,30.604 C14.431,28.439 14.783,26.779 15.449,25.803 C15.928,25.101 16.542,24.773 17.374,24.771 C18.212,24.773 18.826,25.101 19.305,25.803 C19.971,26.779 20.323,28.439 20.323,30.604 C20.323,36.427 19.313,39.942 18.243,43.665 L18.243,43.665 Z M22.651,35.766 C22.831,34.226 22.938,32.528 22.938,30.604 C22.938,27.873 22.442,25.761 21.465,24.329 C20.498,22.912 19.085,22.16 17.374,22.156 C15.669,22.16 14.257,22.912 13.289,24.329 C12.312,25.761 11.816,27.872 11.816,30.604 C11.816,32.527 11.923,34.224 12.103,35.763 C10.901,32.619 10.034,29.126 10.034,24.429 C10.034,21.636 10.794,19.313 12.233,17.709 C13.544,16.248 15.324,15.474 17.375,15.471 C19.43,15.474 21.209,16.248 22.521,17.709 C23.96,19.312 24.72,21.636 24.72,24.429 C24.72,29.128 23.853,32.622 22.651,35.766 L22.651,35.766 Z M26.245,33.144 C26.907,30.643 27.335,27.814 27.335,24.428 C27.335,20.98 26.343,18.053 24.467,15.962 C22.673,13.963 20.156,12.859 17.375,12.855 C14.598,12.859 12.08,13.961 10.287,15.961 C8.411,18.052 7.42,20.977 7.42,24.425 C7.42,27.812 7.848,30.642 8.511,33.143 C5.421,28.077 2.904,22.745 2.904,14.879 C2.904,11.149 4.333,8.029 7.037,5.855 C9.613,3.784 13.286,2.641 17.376,2.637 C21.468,2.641 25.14,3.785 27.717,5.855 C30.421,8.029 31.851,11.15 31.851,14.879 C31.85,22.745 29.334,28.078 26.245,33.144 L26.245,33.144 Z" id="Shape" fill="#FFFFFF"></path>
            </g>
        </g>
    </g>
</svg>