<?xml version="1.0" encoding="utf-8"?>
<!-- Generator: Adobe Illustrator 17.0.0, SVG Export Plug-In . SVG Version: 6.00 Build 0)  -->
<!DOCTYPE svg PUBLIC "-//W3C//DTD SVG 1.1//EN" "http://www.w3.org/Graphics/SVG/1.1/DTD/svg11.dtd">
<svg version="1.1" id="Layer_1" xmlns="http://www.w3.org/2000/svg" xmlns:xlink="http://www.w3.org/1999/xlink" x="0px" y="0px"
	 width="197.001px" height="60px" viewBox="0 0 197.001 60" enable-background="new 0 0 197.001 60" xml:space="preserve">
<circle opacity="0.1" fill="#D6D6D6" cx="30.001" cy="30" r="30"/>
<g>
	<path fill="#F7F7F7" d="M86.836,37.794c0,0.458-0.152,0.839-0.456,1.144s-0.684,0.457-1.14,0.457c-0.434,0-0.809-0.152-1.124-0.457
		c-0.315-0.306-0.473-0.688-0.473-1.146v-11.22c0-0.807-0.288-1.499-0.863-2.077c-0.575-0.578-1.266-0.867-2.068-0.867h-0.13
		c-0.804,0-1.494,0.289-2.069,0.867c-0.575,0.578-0.863,1.27-0.863,2.077v11.22c0,0.458-0.158,0.84-0.473,1.146
		c-0.315,0.305-0.689,0.457-1.124,0.457c-0.456,0-0.836-0.152-1.14-0.456c-0.304-0.305-0.456-0.685-0.456-1.142V15.682
		c0-0.435,0.152-0.81,0.456-1.125c0.304-0.315,0.685-0.473,1.14-0.473c0.434,0,0.809,0.158,1.124,0.473
		c0.315,0.315,0.473,0.689,0.473,1.124v5.343c0,0.13,0.054,0.163,0.163,0.097c0.868-0.456,1.791-0.684,2.769-0.684h0.13
		c1.693,0,3.138,0.6,4.332,1.798c1.195,1.199,1.792,2.648,1.792,4.347V37.794z"/>
	<path fill="#F7F7F7" d="M109.448,29.916c0,0.456-0.152,0.842-0.456,1.157c-0.304,0.315-0.684,0.472-1.14,0.472h-7.395
		c-0.13,0-0.196,0.055-0.196,0.163v1.629c0,0.804,0.288,1.494,0.863,2.068c0.575,0.576,1.265,0.864,2.069,0.864h0.13
		c1.151,0,2.008-0.51,2.574-1.531c0.303-0.565,0.77-0.847,1.401-0.847c0.456,0,0.835,0.157,1.14,0.472
		c0.304,0.315,0.456,0.689,0.456,1.124c0,0.283-0.065,0.544-0.196,0.782c-0.521,0.977-1.265,1.754-2.231,2.329
		c-0.967,0.575-2.015,0.863-3.143,0.863h-0.13c-1.694,0-3.139-0.597-4.333-1.791c-1.195-1.195-1.792-2.639-1.792-4.333v-6.809
		c0-1.694,0.597-3.144,1.792-4.349c1.194-1.205,2.639-1.808,4.333-1.808h0.13c1.693,0,3.138,0.603,4.332,1.808
		c1.195,1.205,1.792,2.655,1.792,4.349V29.916z M106.255,28.188v-1.64c0-0.831-0.288-1.536-0.863-2.116
		c-0.575-0.579-1.266-0.869-2.068-0.869h-0.13c-0.804,0-1.494,0.29-2.069,0.869c-0.575,0.579-0.863,1.285-0.863,2.116v1.64
		c0,0.109,0.065,0.164,0.196,0.164h5.603C106.19,28.352,106.255,28.297,106.255,28.188z"/>
	<path fill="#F7F7F7" d="M123.687,39.396c-0.325,0-0.619-0.087-0.879-0.261c-2.15-1.392-3.226-3.381-3.226-5.969V15.682
		c0-0.435,0.157-0.81,0.473-1.125c0.315-0.315,0.689-0.473,1.124-0.473c0.456,0,0.836,0.158,1.14,0.473
		c0.304,0.315,0.456,0.691,0.456,1.125v17.484c0,1.414,0.597,2.512,1.792,3.295c0.477,0.327,0.716,0.773,0.716,1.337
		c0,0.435-0.158,0.81-0.473,1.125C124.496,39.238,124.121,39.396,123.687,39.396z"/>
	<path fill="#F7F7F7" d="M139.034,15.94c0,0.522-0.191,0.972-0.57,1.352c-0.381,0.38-0.83,0.57-1.352,0.57s-0.972-0.19-1.352-0.57
		c-0.38-0.38-0.57-0.83-0.57-1.352c0-0.542,0.19-0.999,0.57-1.368c0.38-0.369,0.83-0.554,1.352-0.554s0.971,0.185,1.352,0.554
		C138.843,14.941,139.034,15.398,139.034,15.94z M138.708,37.794c0,0.458-0.158,0.839-0.473,1.144
		c-0.315,0.305-0.689,0.457-1.124,0.457c-0.434,0-0.809-0.152-1.124-0.457c-0.315-0.305-0.473-0.686-0.473-1.144V22.038
		c0-0.436,0.157-0.812,0.473-1.128c0.315-0.315,0.689-0.474,1.124-0.474c0.434,0,0.809,0.159,1.124,0.474
		c0.315,0.316,0.473,0.692,0.473,1.128V37.794z"/>
	<path fill="#F7F7F7" d="M168.634,22.553l-4.137,15.702c-0.196,0.804-0.707,1.205-1.533,1.205c-0.827,0-1.349-0.401-1.566-1.204
		l-2.508-9.545c-0.021-0.044-0.052-0.066-0.095-0.066c-0.02,0-0.042,0.022-0.062,0.066l-2.508,9.545
		c-0.218,0.804-0.74,1.204-1.566,1.204c-0.826,0-1.337-0.402-1.533-1.205l-4.137-15.702c-0.044-0.13-0.066-0.271-0.066-0.423
		c0-0.434,0.159-0.809,0.476-1.124c0.318-0.315,0.695-0.473,1.133-0.473c0.831,0,1.357,0.4,1.575,1.199l2.484,9.552
		c0.021,0.043,0.043,0.064,0.065,0.064c0.044,0,0.077-0.021,0.099-0.064l2.508-9.546c0.217-0.803,0.728-1.205,1.531-1.205
		c0.825,0,1.346,0.402,1.564,1.205l2.508,9.546c0.025,0.043,0.065,0.064,0.118,0.064c0.025,0,0.051-0.019,0.078-0.056l2.482-9.552
		c0.216-0.805,0.737-1.207,1.56-1.207c0.433,0,0.807,0.158,1.121,0.473c0.314,0.315,0.471,0.689,0.471,1.124
		C168.699,22.282,168.677,22.423,168.634,22.553z"/>
	<path fill="#F7F7F7" d="M197.001,37.794c0,0.458-0.152,0.839-0.456,1.144s-0.684,0.457-1.14,0.457
		c-0.434,0-0.809-0.152-1.124-0.457c-0.315-0.306-0.472-0.688-0.472-1.146v-11.94c0-0.61-0.218-1.134-0.652-1.57
		c-0.434-0.436-0.956-0.655-1.564-0.655s-1.13,0.218-1.563,0.655c-0.435,0.436-0.652,0.96-0.652,1.57v11.94
		c0,0.458-0.158,0.84-0.473,1.146c-0.315,0.305-0.689,0.457-1.124,0.457c-0.434,0-0.809-0.152-1.124-0.457
		c-0.315-0.306-0.472-0.688-0.472-1.146v-11.94c0-0.61-0.218-1.134-0.652-1.57c-0.434-0.436-0.956-0.655-1.564-0.655
		c-0.608,0-1.13,0.218-1.564,0.655c-0.434,0.436-0.651,0.96-0.651,1.57v11.94c0,0.458-0.158,0.84-0.473,1.146
		c-0.315,0.305-0.689,0.457-1.124,0.457c-0.456,0-0.836-0.152-1.14-0.457s-0.456-0.686-0.456-1.144V25.862
		c0-1.504,0.526-2.784,1.58-3.841c1.054-1.057,2.329-1.586,3.828-1.586c1.411,0,2.639,0.488,3.681,1.464
		c0.043,0.045,0.087,0.067,0.13,0.067c0.043,0,0.086-0.022,0.13-0.067c1.042-0.976,2.27-1.464,3.681-1.464
		c1.499,0,2.774,0.529,3.828,1.586c1.054,1.057,1.58,2.337,1.58,3.841V37.794z"/>
</g>
<g>
	<g>
		<path fill="#F60C5B" d="M24.067,39.444c0,0-9.612-12.702-9.784-23.859C14.112,4.428,24.582,0.309,31.105,0.652
			s16.65,5.321,15.276,15.105c-1.373,9.784-4.119,17.679-10.127,24.374S24.067,39.444,24.067,39.444z"/>
		<path fill="#00AA9D" d="M26.299,41.504c0,0-4.634-10.127-4.634-14.59s0.687-13.217,9.269-13.045
			c8.582,0.172,8.582,10.985,8.067,13.903c-0.515,2.918-2.403,13.045-4.978,15.62C31.448,45.966,26.299,41.504,26.299,41.504z"/>
		<path fill="#D6E000" d="M30.59,23.309c-2.06,0-5.493,4.291-4.634,9.44c0.858,5.149,4.463,19.224,4.463,19.224
			s2.918-10.127,3.433-12.358c0.515-2.231,1.03-9.784,0.858-11.157C34.537,27.086,32.993,23.309,30.59,23.309z"/>
		<path fill="#FFFFFF" d="M42.355,3.817c-3.038-2.442-7.291-3.79-11.979-3.795c-4.686,0.005-8.94,1.354-11.977,3.796
			c-3.342,2.687-5.109,6.514-5.109,11.063c0,10.357,4.125,16.784,8.115,22.996c3.736,5.817,7.264,11.277,7.667,19.927
			c0.032,0.697,0.607,1.218,1.306,1.218h0c0.698,0,1.273-0.52,1.306-1.218c0.406-8.649,3.934-14.134,7.668-19.951
			c3.989-6.213,8.114-12.627,8.114-22.986C47.465,10.32,45.698,6.505,42.355,3.817z M31.243,43.665
			c-0.293,1.021-0.59,2.052-0.865,3.138c-0.276-1.087-0.572-2.118-0.866-3.14c-1.07-3.722-2.081-7.237-2.081-13.059
			c0-2.165,0.352-3.825,1.018-4.801c0.479-0.702,1.093-1.03,1.925-1.032c0.838,0.002,1.452,0.33,1.931,1.032
			c0.666,0.976,1.018,2.636,1.018,4.801C33.323,36.427,32.313,39.942,31.243,43.665z M35.651,35.766
			c0.18-1.54,0.287-3.238,0.287-5.162c0-2.731-0.496-4.843-1.473-6.275c-0.967-1.417-2.38-2.169-4.091-2.173
			c-1.705,0.004-3.117,0.756-4.085,2.173c-0.977,1.432-1.473,3.543-1.473,6.275c0,1.923,0.107,3.62,0.287,5.159
			c-1.202-3.144-2.069-6.637-2.069-11.334c0-2.793,0.76-5.116,2.199-6.72c1.311-1.461,3.091-2.235,5.142-2.238
			c2.055,0.003,3.834,0.777,5.146,2.238c1.439,1.603,2.199,3.927,2.199,6.72C37.72,29.128,36.853,32.622,35.651,35.766z
			 M39.245,33.144c0.662-2.501,1.09-5.33,1.09-8.716c0-3.448-0.992-6.375-2.868-8.466c-1.794-1.999-4.311-3.103-7.092-3.107
			c-2.777,0.004-5.295,1.106-7.088,3.106c-1.876,2.091-2.867,5.016-2.867,8.464c0,3.387,0.428,6.217,1.091,8.718
			c-3.09-5.066-5.607-10.398-5.607-18.264c0-3.73,1.429-6.85,4.133-9.024c2.576-2.071,6.249-3.214,10.339-3.218
			c4.092,0.004,7.764,1.148,10.341,3.218c2.704,2.174,4.134,5.295,4.134,9.024C44.85,22.745,42.334,28.078,39.245,33.144z"/>
	</g>
</g>
</svg>
