<?xml version="1.0" encoding="UTF-8" standalone="no"?>
<svg width="28px" height="28px" viewBox="0 0 28 28" version="1.1" xmlns="http://www.w3.org/2000/svg" xmlns:xlink="http://www.w3.org/1999/xlink" xmlns:sketch="http://www.bohemiancoding.com/sketch/ns">
    <!-- Generator: Sketch 3.0.2 (7799) - http://www.bohemiancoding.com/sketch -->
    <title>Untitled 2</title>
    <description>Created with Sketch.</description>
    <defs></defs>
    <g id="Page-1" stroke="none" stroke-width="1" fill="none" fill-rule="evenodd" sketch:type="MSPage">
        <path d="M14,0 C5.22265625,0 0,4.00585938 0,10.6503906 C0,16.2832031 10.71875,25.7441406 12.8378906,27.5898438 C13.1933594,27.8769531 13.5898438,28 14,28 C14.4101562,28 14.8066406,27.8769531 15.1210938,27.5898438 C17.28125,25.7441406 28,16.2832031 28,10.6503906 C28,4.00585938 22.75,0 14,0 Z M14,26.25 C14,26.25 1.75,15.75 1.75,10.6503906 C1.75,4.375 7.21875,1.75 14,1.75 C20.7539062,1.75 26.25,4.375 26.25,10.6503906 C26.25,15.75 14,26.25 14,26.25 Z M14,5.6875 C11.8125,5.6875 10.0625,7.46484375 10.0625,9.625 C10.0625,11.8125 11.8125,13.5625 14,13.5625 C16.1601562,13.5625 17.9375,11.8125 17.9375,9.625 C17.9375,7.46484375 16.1601562,5.6875 14,5.6875 Z M14,12.6875 C12.3183594,12.6875 10.9375,11.3066406 10.9375,9.625 C10.9375,7.94335938 12.3183594,6.5625 14,6.5625 C15.6816406,6.5625 17.0625,7.94335938 17.0625,9.625 C17.0625,11.3066406 15.6816406,12.6875 14,12.6875 Z" id="location" fill="#000000" sketch:type="MSShapeGroup"></path>
    </g>
</svg>