<?xml version="1.0" encoding="UTF-8" standalone="no"?>
<svg width="50px" height="42px" viewBox="0 0 50 42" version="1.1" xmlns="http://www.w3.org/2000/svg" xmlns:xlink="http://www.w3.org/1999/xlink" xmlns:sketch="http://www.bohemiancoding.com/sketch/ns">
    <!-- Generator: Sketch 3.0.2 (7799) - http://www.bohemiancoding.com/sketch -->
    <title>Fill 2</title>
    <description>Created with Sketch.</description>
    <defs></defs>
    <g id="Page-1" stroke="none" stroke-width="1" fill="none" fill-rule="evenodd" sketch:type="MSPage">
        <g id="Twitter_logo_blue.eps" sketch:type="MSLayerGroup" transform="translate(0.000000, -51.000000)" fill="#79808B">
            <path d="M15.7247888,92.822 C9.93178244,92.822 4.53966861,91.1085765 0,88.1718591 C0.802516551,88.2674491 1.61911555,88.3163514 2.44705366,88.3163514 C7.25300852,88.3163514 11.6761769,86.6616106 15.1869125,83.8856247 C10.698087,83.8020295 6.90972603,80.809582 5.60444786,76.6973657 C6.2306595,76.8182373 6.87333114,76.8830096 7.53429167,76.8830096 C8.46995135,76.8830096 9.37616592,76.756602 10.237024,76.5200259 C5.54409452,75.5692927 2.00830316,71.3858452 2.00830316,66.3708752 C2.00830316,66.3273246 2.00830316,66.2839584 2.00903471,66.2407768 C3.39222356,67.0160156 4.97384689,67.4816018 6.65551044,67.5353019 C3.9030323,65.6792316 2.09188339,62.5111051 2.09188339,58.920205 C2.09188339,57.0233521 2.59775412,55.2453407 3.4807418,53.7166385 C8.54018069,59.9787077 16.0987966,64.0994127 24.6243462,64.5310441 C24.4495044,63.7735209 24.3586086,62.9835191 24.3586086,62.1722957 C24.3586086,56.4562707 28.9516807,51.822 34.6170306,51.822 C37.5673946,51.822 40.2333663,53.0790642 42.1046856,55.090699 C44.4412744,54.6264046 46.6366729,53.7649872 48.61864,52.5789696 C47.8527013,54.9958471 46.2262702,57.0242748 44.1082337,58.3053287 C46.1832913,58.0550969 48.1603204,57.4987187 50,56.6755003 C48.6246754,58.7511694 46.8854018,60.5742077 44.8813051,62.0335241 C44.9010571,62.4773349 44.9109331,62.9237292 44.9109331,63.3725226 C44.9109331,77.0501999 34.5930722,92.822 15.7247888,92.822" id="Fill-2" sketch:type="MSShapeGroup"></path>
        </g>
    </g>
</svg>