<?xml version="1.0" encoding="UTF-8" standalone="no"?>
<svg width="28px" height="28px" viewBox="0 0 28 28" version="1.1" xmlns="http://www.w3.org/2000/svg" xmlns:xlink="http://www.w3.org/1999/xlink" xmlns:sketch="http://www.bohemiancoding.com/sketch/ns">
    <!-- Generator: Sketch 3.0.2 (7799) - http://www.bohemiancoding.com/sketch -->
    <title>world</title>
    <description>Created with Sketch.</description>
    <defs></defs>
    <g id="Page-1" stroke="none" stroke-width="1" fill="none" fill-rule="evenodd" sketch:type="MSPage">
        <path d="M14,0 C6.27539062,0 0,6.27539062 0,14 C0,21.7246094 6.27539062,28 14,28 C21.7246094,28 28,21.7246094 28,14 C28,6.27539062 21.7246094,0 14,0 Z M14,26.25 C7.21875,26.25 1.75,20.78125 1.75,14 C1.75,10.2128906 3.47265625,6.84960938 6.15234375,4.59375 C7.09570312,5.27734375 7.50585938,6.5625 7.56054688,7.62890625 C7.58789062,8.38085938 7.41015625,9.25585938 7.65625,9.96679688 C8.02539062,11.0332031 8.38085938,10.1582031 9.25585938,10.2539062 C10.4726562,10.4042969 12.7558594,11.5664062 12.0039062,12.7558594 C11.59375,13.4121094 11.0332031,13.5351562 10.9648438,14.4375 C10.8691406,15.5996094 11.6894531,15.8183594 12.3730469,16.5292969 C13.7539062,18.0058594 12.9335938,20.7128906 14.1914062,21.9980469 L14.7519531,22.4628906 C15.2441406,23.4746094 16.4335938,20.9316406 16.5566406,20.6582031 C16.7207031,20.2753906 16.6523438,19.7558594 16.84375,19.4003906 C17.2128906,18.7441406 18.0878906,18.3066406 18.5664062,17.9101562 C19.8378906,16.7753906 19.4960938,13.5351562 17.9101562,12.6191406 C16.2148438,11.6621094 13.4941406,13.3710938 12.5644531,11.0605469 C12.25,10.2128906 12.25,9.47460938 13.0976562,9.03710938 C13.6308594,8.75 14.8066406,8.72265625 15.2441406,9.28320312 C15.6269531,9.72070312 15.6269531,11.2519531 16.1875,9.77539062 C16.5292969,8.84570312 16.4746094,8.43554688 17.2128906,7.62890625 C17.6914062,7.15039062 18.6210938,6.22070312 17.8691406,5.49609375 C17.0898438,4.74414062 16.5976562,6.15234375 15.7226562,5.90625 C15.6269531,5.05859375 16.40625,4.44335938 16.3789062,3.69140625 C16.3105469,2.625 15.0253906,2.99414062 14.2871094,3.21289062 C13.7128906,3.40429688 12.4960938,4.71679688 12.0039062,3.78710938 C11.6621094,3.15820312 12.6601562,2.40625 12.90625,1.81835938 C13.2480469,1.77734375 13.6308594,1.75 14,1.75 C20.7539062,1.75 26.25,7.24609375 26.25,14 C26.25,20.78125 20.7539062,26.25 14,26.25 Z" id="world" fill="#D4145A" sketch:type="MSShapeGroup"></path>
    </g>
</svg>